<svg width="40" height="40" viewBox="0 0 40 40" fill="none" xmlns="http://www.w3.org/2000/svg">
<path d="M20 3.33333C20.3316 3.33333 20.6495 3.46503 20.8839 3.69945C21.1183 3.93387 21.25 4.25181 21.25 4.58333V7.08333C21.25 7.41485 21.1183 7.7328 20.8839 7.96722C20.6495 8.20164 20.3316 8.33333 20 8.33333C19.6685 8.33333 19.3506 8.20164 19.1162 7.96722C18.8817 7.7328 18.75 7.41485 18.75 7.08333V4.58333C18.75 4.25181 18.8817 3.93387 19.1162 3.69945C19.3506 3.46503 19.6685 3.33333 20 3.33333ZM20 28.3333C22.2102 28.3333 24.3298 27.4554 25.8926 25.8926C27.4554 24.3298 28.3334 22.2101 28.3334 20C28.3334 17.7899 27.4554 15.6702 25.8926 14.1074C24.3298 12.5446 22.2102 11.6667 20 11.6667C17.7899 11.6667 15.6703 12.5446 14.1075 14.1074C12.5447 15.6702 11.6667 17.7899 11.6667 20C11.6667 22.2101 12.5447 24.3298 14.1075 25.8926C15.6703 27.4554 17.7899 28.3333 20 28.3333ZM20 25.8333C19.234 25.8333 18.4755 25.6825 17.7677 25.3893C17.06 25.0961 16.4169 24.6665 15.8753 24.1248C15.3336 23.5831 14.9039 22.9401 14.6107 22.2323C14.3176 21.5246 14.1667 20.766 14.1667 20C14.1667 19.234 14.3176 18.4754 14.6107 17.7677C14.9039 17.0599 15.3336 16.4169 15.8753 15.8752C16.4169 15.3335 17.06 14.9039 17.7677 14.6107C18.4755 14.3175 19.234 14.1667 20 14.1667C21.5471 14.1667 23.0309 14.7812 24.1248 15.8752C25.2188 16.9692 25.8334 18.4529 25.8334 20C25.8334 21.5471 25.2188 23.0308 24.1248 24.1248C23.0309 25.2188 21.5471 25.8333 20 25.8333ZM35.4167 21.25C35.7482 21.25 36.0662 21.1183 36.3006 20.8839C36.535 20.6495 36.6667 20.3315 36.6667 20C36.6667 19.6685 36.535 19.3505 36.3006 19.1161C36.0662 18.8817 35.7482 18.75 35.4167 18.75H32.9167C32.5852 18.75 32.2672 18.8817 32.0328 19.1161C31.7984 19.3505 31.6667 19.6685 31.6667 20C31.6667 20.3315 31.7984 20.6495 32.0328 20.8839C32.2672 21.1183 32.5852 21.25 32.9167 21.25H35.4167ZM20 31.6667C20.3316 31.6667 20.6495 31.7984 20.8839 32.0328C21.1183 32.2672 21.25 32.5851 21.25 32.9167V35.4167C21.25 35.7482 21.1183 36.0661 20.8839 36.3006C20.6495 36.535 20.3316 36.6667 20 36.6667C19.6685 36.6667 19.3506 36.535 19.1162 36.3006C18.8817 36.0661 18.75 35.7482 18.75 35.4167V32.9167C18.75 32.5851 18.8817 32.2672 19.1162 32.0328C19.3506 31.7984 19.6685 31.6667 20 31.6667ZM7.08337 21.25C7.41489 21.25 7.73284 21.1183 7.96726 20.8839C8.20168 20.6495 8.33337 20.3315 8.33337 20C8.33337 19.6685 8.20168 19.3505 7.96726 19.1161C7.73284 18.8817 7.41489 18.75 7.08337 18.75H4.58337C4.25185 18.75 3.93391 18.8817 3.69949 19.1161C3.46507 19.3505 3.33337 19.6685 3.33337 20C3.33337 20.3315 3.46507 20.6495 3.69949 20.8839C3.93391 21.1183 4.25185 21.25 4.58337 21.25H7.08337ZM7.03337 7.03333C7.26775 6.79925 7.58546 6.66777 7.91671 6.66777C8.24796 6.66777 8.56567 6.79925 8.80004 7.03333L11.3 9.53333C11.5208 9.77029 11.641 10.0837 11.6353 10.4075C11.6296 10.7314 11.4984 11.0403 11.2694 11.2694C11.0404 11.4984 10.7314 11.6296 10.4076 11.6353C10.0837 11.641 9.77033 11.5208 9.53337 11.3L7.03337 8.8C6.79929 8.56562 6.66781 8.24792 6.66781 7.91667C6.66781 7.58541 6.79929 7.26771 7.03337 7.03333ZM8.80004 32.9667C8.6856 33.0895 8.5476 33.188 8.39427 33.2563C8.24094 33.3246 8.07542 33.3614 7.90758 33.3643C7.73974 33.3673 7.57302 33.3364 7.41738 33.2735C7.26173 33.2107 7.12034 33.1171 7.00164 32.9984C6.88295 32.8797 6.78937 32.7383 6.7265 32.5827C6.66363 32.427 6.63276 32.2603 6.63572 32.0925C6.63868 31.9246 6.67542 31.7591 6.74374 31.6058C6.81206 31.4524 6.91056 31.3144 7.03337 31.2L9.53337 28.7C9.64781 28.5772 9.78581 28.4787 9.93914 28.4104C10.0925 28.342 10.258 28.3053 10.4258 28.3023C10.5937 28.2994 10.7604 28.3303 10.916 28.3931C11.0717 28.456 11.2131 28.5496 11.3318 28.6683C11.4505 28.787 11.544 28.9284 11.6069 29.084C11.6698 29.2397 11.7007 29.4064 11.6977 29.5742C11.6947 29.742 11.658 29.9076 11.5897 30.0609C11.5214 30.2142 11.4229 30.3522 11.3 30.4667L8.80004 32.9667ZM32.9667 7.03333C32.7323 6.79925 32.4146 6.66777 32.0834 6.66777C31.7521 6.66777 31.4344 6.79925 31.2 7.03333L28.7 9.53333C28.4792 9.77029 28.359 10.0837 28.3648 10.4075C28.3705 10.7314 28.5017 11.0403 28.7307 11.2694C28.9597 11.4984 29.2687 11.6296 29.5925 11.6353C29.9163 11.641 30.2298 11.5208 30.4667 11.3L32.9667 8.8C33.2008 8.56562 33.3323 8.24792 33.3323 7.91667C33.3323 7.58541 33.2008 7.26771 32.9667 7.03333ZM31.2 32.9667C31.3145 33.0895 31.4525 33.188 31.6058 33.2563C31.7591 33.3246 31.9247 33.3614 32.0925 33.3643C32.2603 33.3673 32.4271 33.3364 32.5827 33.2735C32.7384 33.2107 32.8797 33.1171 32.9984 32.9984C33.1171 32.8797 33.2107 32.7383 33.2736 32.5827C33.3364 32.427 33.3673 32.2603 33.3644 32.0925C33.3614 31.9246 33.3247 31.7591 33.2563 31.6058C33.188 31.4524 33.0895 31.3144 32.9667 31.2L30.4667 28.7C30.3523 28.5772 30.2143 28.4787 30.0609 28.4104C29.9076 28.342 29.7421 28.3053 29.5742 28.3023C29.4064 28.2994 29.2397 28.3303 29.084 28.3931C28.9284 28.456 28.787 28.5496 28.6683 28.6683C28.5496 28.787 28.456 28.9284 28.3932 29.084C28.3303 29.2397 28.2994 29.4064 28.3024 29.5742C28.3054 29.742 28.3421 29.9076 28.4104 30.0609C28.4787 30.2142 28.5772 30.3522 28.7 30.4667L31.2 32.9667Z" fill="black"/>
</svg>
